<svg id="visual" viewBox="0 0 900 600" width="900" height="600" xmlns="http://www.w3.org/2000/svg" xmlns:xlink="http://www.w3.org/1999/xlink" version="1.1"><g stroke-width="1" stroke-linejoin="bevel"><path d="M502 274L589 304L515 197Z" fill="#479bdf" stroke="#479bdf"></path><path d="M589 304L631 161L515 197Z" fill="#4facf7" stroke="#4facf7"></path><path d="M562 72L493 107L515 197Z" fill="#173b5a" stroke="#173b5a"></path><path d="M515 197L381 199L502 274Z" fill="#4facf7" stroke="#4facf7"></path><path d="M589 304L719 299L631 161Z" fill="#479bdf" stroke="#479bdf"></path><path d="M719 299L715 177L631 161Z" fill="#081f34" stroke="#081f34"></path><path d="M631 161L562 72L515 197Z" fill="#001122" stroke="#001122"></path><path d="M675 77L562 72L631 161Z" fill="#3f8ac7" stroke="#3f8ac7"></path><path d="M502 274L529 419L589 304Z" fill="#4facf7" stroke="#4facf7"></path><path d="M589 304L721 376L719 299Z" fill="#081f34" stroke="#081f34"></path><path d="M529 419L616 415L589 304Z" fill="#479bdf" stroke="#479bdf"></path><path d="M493 107L381 199L515 197Z" fill="#173b5a" stroke="#173b5a"></path><path d="M502 274L408 399L529 419Z" fill="#3779b0" stroke="#3779b0"></path><path d="M381 199L384 336L502 274Z" fill="#173b5a" stroke="#173b5a"></path><path d="M715 177L675 77L631 161Z" fill="#001122" stroke="#001122"></path><path d="M616 415L721 376L589 304Z" fill="#173b5a" stroke="#173b5a"></path><path d="M384 336L408 399L502 274Z" fill="#081f34" stroke="#081f34"></path><path d="M436 0L394 101L493 107Z" fill="#001122" stroke="#001122"></path><path d="M493 107L394 101L381 199Z" fill="#1f4a6f" stroke="#1f4a6f"></path><path d="M669 0L561 0L562 72Z" fill="#0f2c47" stroke="#0f2c47"></path><path d="M562 72L526 0L493 107Z" fill="#173b5a" stroke="#173b5a"></path><path d="M561 0L526 0L562 72Z" fill="#081f34" stroke="#081f34"></path><path d="M836 291L817 216L719 299Z" fill="#0f2c47" stroke="#0f2c47"></path><path d="M719 299L817 216L715 177Z" fill="#2f699a" stroke="#2f699a"></path><path d="M715 177L827 69L675 77Z" fill="#0f2c47" stroke="#0f2c47"></path><path d="M585 522L677 481L616 415Z" fill="#2f699a" stroke="#2f699a"></path><path d="M616 415L677 481L721 376Z" fill="#4facf7" stroke="#4facf7"></path><path d="M721 376L836 291L719 299Z" fill="#081f34" stroke="#081f34"></path><path d="M585 522L616 415L529 419Z" fill="#001122" stroke="#001122"></path><path d="M675 77L669 0L562 72Z" fill="#479bdf" stroke="#479bdf"></path><path d="M827 69L669 0L675 77Z" fill="#275984" stroke="#275984"></path><path d="M381 199L295 311L384 336Z" fill="#081f34" stroke="#081f34"></path><path d="M384 336L284 375L408 399Z" fill="#001122" stroke="#001122"></path><path d="M264 177L295 311L381 199Z" fill="#081f34" stroke="#081f34"></path><path d="M526 0L436 0L493 107Z" fill="#001122" stroke="#001122"></path><path d="M394 101L314 92L381 199Z" fill="#4facf7" stroke="#4facf7"></path><path d="M286 535L423 483L408 399Z" fill="#3f8ac7" stroke="#3f8ac7"></path><path d="M408 399L423 483L529 419Z" fill="#3f8ac7" stroke="#3f8ac7"></path><path d="M470 518L585 522L529 419Z" fill="#4facf7" stroke="#4facf7"></path><path d="M808 420L836 291L721 376Z" fill="#2f699a" stroke="#2f699a"></path><path d="M423 483L470 518L529 419Z" fill="#081f34" stroke="#081f34"></path><path d="M436 0L314 92L394 101Z" fill="#1f4a6f" stroke="#1f4a6f"></path><path d="M677 481L808 420L721 376Z" fill="#479bdf" stroke="#479bdf"></path><path d="M314 92L264 177L381 199Z" fill="#001122" stroke="#001122"></path><path d="M203 302L284 375L295 311Z" fill="#3779b0" stroke="#3779b0"></path><path d="M295 311L284 375L384 336Z" fill="#3779b0" stroke="#3779b0"></path><path d="M900 116L827 69L817 216Z" fill="#275984" stroke="#275984"></path><path d="M817 216L827 69L715 177Z" fill="#173b5a" stroke="#173b5a"></path><path d="M206 132L226 187L264 177Z" fill="#173b5a" stroke="#173b5a"></path><path d="M264 177L226 187L295 311Z" fill="#479bdf" stroke="#479bdf"></path><path d="M900 331L900 173L836 291Z" fill="#3f8ac7" stroke="#3f8ac7"></path><path d="M836 291L900 173L817 216Z" fill="#173b5a" stroke="#173b5a"></path><path d="M808 420L900 331L836 291Z" fill="#2f699a" stroke="#2f699a"></path><path d="M677 481L802 499L808 420Z" fill="#3779b0" stroke="#3779b0"></path><path d="M808 420L900 429L900 331Z" fill="#081f34" stroke="#081f34"></path><path d="M679 600L802 499L677 481Z" fill="#1f4a6f" stroke="#1f4a6f"></path><path d="M480 600L582 600L585 522Z" fill="#081f34" stroke="#081f34"></path><path d="M585 522L679 600L677 481Z" fill="#4facf7" stroke="#4facf7"></path><path d="M226 187L203 302L295 311Z" fill="#1f4a6f" stroke="#1f4a6f"></path><path d="M900 173L900 116L817 216Z" fill="#479bdf" stroke="#479bdf"></path><path d="M431 600L480 600L470 518Z" fill="#275984" stroke="#275984"></path><path d="M470 518L480 600L585 522Z" fill="#275984" stroke="#275984"></path><path d="M431 600L470 518L423 483Z" fill="#4facf7" stroke="#4facf7"></path><path d="M286 535L408 399L284 375Z" fill="#479bdf" stroke="#479bdf"></path><path d="M900 0L832 0L827 69Z" fill="#2f699a" stroke="#2f699a"></path><path d="M827 69L832 0L669 0Z" fill="#275984" stroke="#275984"></path><path d="M314 92L206 132L264 177Z" fill="#3779b0" stroke="#3779b0"></path><path d="M226 187L137 201L203 302Z" fill="#3f8ac7" stroke="#3f8ac7"></path><path d="M272 0L206 132L314 92Z" fill="#0f2c47" stroke="#0f2c47"></path><path d="M582 600L679 600L585 522Z" fill="#0f2c47" stroke="#0f2c47"></path><path d="M203 302L228 418L284 375Z" fill="#081f34" stroke="#081f34"></path><path d="M436 0L272 0L314 92Z" fill="#0f2c47" stroke="#0f2c47"></path><path d="M330 600L431 600L423 483Z" fill="#0f2c47" stroke="#0f2c47"></path><path d="M900 507L900 429L802 499Z" fill="#3f8ac7" stroke="#3f8ac7"></path><path d="M802 499L900 429L808 420Z" fill="#0f2c47" stroke="#0f2c47"></path><path d="M228 418L286 535L284 375Z" fill="#275984" stroke="#275984"></path><path d="M900 116L900 0L827 69Z" fill="#3779b0" stroke="#3779b0"></path><path d="M272 0L215 0L206 132Z" fill="#275984" stroke="#275984"></path><path d="M286 535L330 600L423 483Z" fill="#4facf7" stroke="#4facf7"></path><path d="M74 111L137 201L206 132Z" fill="#0f2c47" stroke="#0f2c47"></path><path d="M206 132L137 201L226 187Z" fill="#479bdf" stroke="#479bdf"></path><path d="M203 302L112 380L228 418Z" fill="#2f699a" stroke="#2f699a"></path><path d="M806 600L900 507L802 499Z" fill="#001122" stroke="#001122"></path><path d="M679 600L806 600L802 499Z" fill="#081f34" stroke="#081f34"></path><path d="M137 201L119 263L203 302Z" fill="#479bdf" stroke="#479bdf"></path><path d="M228 418L166 494L286 535Z" fill="#001122" stroke="#001122"></path><path d="M112 380L166 494L228 418Z" fill="#001122" stroke="#001122"></path><path d="M286 535L225 600L330 600Z" fill="#3f8ac7" stroke="#3f8ac7"></path><path d="M119 263L112 380L203 302Z" fill="#001122" stroke="#001122"></path><path d="M166 494L225 600L286 535Z" fill="#3779b0" stroke="#3779b0"></path><path d="M215 0L137 0L206 132Z" fill="#173b5a" stroke="#173b5a"></path><path d="M137 201L0 214L119 263Z" fill="#479bdf" stroke="#479bdf"></path><path d="M806 600L900 600L900 507Z" fill="#0f2c47" stroke="#0f2c47"></path><path d="M137 0L74 111L206 132Z" fill="#081f34" stroke="#081f34"></path><path d="M119 263L0 333L112 380Z" fill="#1f4a6f" stroke="#1f4a6f"></path><path d="M112 380L100 463L166 494Z" fill="#001122" stroke="#001122"></path><path d="M166 494L132 600L225 600Z" fill="#4facf7" stroke="#4facf7"></path><path d="M0 414L100 463L112 380Z" fill="#001122" stroke="#001122"></path><path d="M100 463L132 600L166 494Z" fill="#3779b0" stroke="#3779b0"></path><path d="M0 71L0 214L74 111Z" fill="#081f34" stroke="#081f34"></path><path d="M74 111L0 214L137 201Z" fill="#3779b0" stroke="#3779b0"></path><path d="M100 463L0 507L132 600Z" fill="#479bdf" stroke="#479bdf"></path><path d="M0 214L0 333L119 263Z" fill="#4facf7" stroke="#4facf7"></path><path d="M0 333L0 414L112 380Z" fill="#1f4a6f" stroke="#1f4a6f"></path><path d="M0 0L0 71L74 111Z" fill="#081f34" stroke="#081f34"></path><path d="M137 0L0 0L74 111Z" fill="#3779b0" stroke="#3779b0"></path><path d="M0 414L0 507L100 463Z" fill="#0f2c47" stroke="#0f2c47"></path><path d="M0 507L0 600L132 600Z" fill="#275984" stroke="#275984"></path></g></svg>